M48
INCH,TZ
T1C0.020
T2C0.028
T3C0.031
T4C0.035
T5C0.035
T6C0.039
T7C0.040
T8C0.047
T9C0.050
T10C0.067
T11C0.071
T12C0.150
T13C0.122
%
G90
G05
T1
X48425Y-17717
X48425Y-18898
X48425Y-20079
X48425Y-21260
X48425Y-22441
X48425Y-23622
X48425Y-45669
X48425Y-46850
X48425Y-48031
X48425Y-49213
X48425Y-50394
X48425Y-51575
X49606Y-17717
X49606Y-18898
X49606Y-20079
X49606Y-21260
X49606Y-22441
X49606Y-23622
X49606Y-45669
X49606Y-46850
X49606Y-48031
X49606Y-49213
X49606Y-50394
X49606Y-51575
X50787Y-17717
X50787Y-18898
X50787Y-20079
X50787Y-21260
X50787Y-22441
X50787Y-23622
X50787Y-45669
X50787Y-46850
X50787Y-48031
X50787Y-49213
X50787Y-50394
X50787Y-51575
X51969Y-17717
X51969Y-18898
X51969Y-20079
X51969Y-21260
X51969Y-22441
X51969Y-23622
X51969Y-45669
X51969Y-46850
X51969Y-48031
X51969Y-49213
X51969Y-50394
X51969Y-51575
X53150Y-17717
X53150Y-51575
X57087Y-17717
X57087Y-51575
X58268Y-17717
X58268Y-18898
X58268Y-20079
X58268Y-21260
X58268Y-22441
X58268Y-23622
X58268Y-45669
X58268Y-46850
X58268Y-48031
X58268Y-49213
X58268Y-50394
X58268Y-51575
X59449Y-17717
X59449Y-18898
X59449Y-20079
X59449Y-21260
X59449Y-22441
X59449Y-23622
X59449Y-45669
X59449Y-46850
X59449Y-48031
X59449Y-49213
X59449Y-50394
X59449Y-51575
X60630Y-17717
X60630Y-18898
X60630Y-20079
X60630Y-21260
X60630Y-22441
X60630Y-23622
X60630Y-45669
X60630Y-46850
X60630Y-48031
X60630Y-49213
X60630Y-50394
X60630Y-51575
X61811Y-17717
X61811Y-18898
X61811Y-20079
X61811Y-21260
X61811Y-22441
X61811Y-23622
X61811Y-45669
X61811Y-46850
X61811Y-48031
X61811Y-49213
X61811Y-50394
X61811Y-51575
T2
X68898Y-30709
X68898Y-31496
X68898Y-39370
X68898Y-40157
T3
X42520Y-26969
X42520Y-28937
X42520Y-44685
X42520Y-46654
X50787Y-28890
X50787Y-31890
X51087Y-37598
X51087Y-40598
X51787Y-28890
X51787Y-31890
X52087Y-37598
X52087Y-40598
X52787Y-28890
X52787Y-31890
X53087Y-37598
X53087Y-40598
X53787Y-28890
X53787Y-31890
X54087Y-37598
X54087Y-40598
X54787Y-28890
X54787Y-31890
X55087Y-37598
X55087Y-40598
X55787Y-28890
X55787Y-31890
X56087Y-37598
X56087Y-40598
X56787Y-28890
X56787Y-31890
X57087Y-37598
X57087Y-40598
T4
X66535Y-27346
X66535Y-29346
X66535Y-41323
X66535Y-43323
X67535Y-28346
X67535Y-42323
T5
X48425Y-29528
X48425Y-31496
X48425Y-38189
X48425Y-40157
T6
X35879Y-45706
X35881Y-46887
X36219Y-31890
X36221Y-22441
X37847Y-50824
X37849Y-41769
X38188Y-26378
X38190Y-27953
X40882Y-24016
X44882Y-24016
X48425Y-42913
X52425Y-42913
X54118Y-26378
X54118Y-42913
X55118Y-26378
X55118Y-42913
X56118Y-26378
X56118Y-42913
X57811Y-43307
X59055Y-28283
X59055Y-32283
X59646Y-37205
X59646Y-41205
X60236Y-26575
X60827Y-28283
X60827Y-32283
X61613Y-41142
X61811Y-43307
X62597Y-32283
X64236Y-26575
T7
X70866Y-29134
X71016Y-41732
X71866Y-29134
X72016Y-41732
X72835Y-34646
X72835Y-35646
X72835Y-36646
X72866Y-29134
X73016Y-41732
X73835Y-34646
X73835Y-35646
X73835Y-36646
X73866Y-29134
X74016Y-41732
T8
X26378Y-26772
X26378Y-31496
X26378Y-36220
X26378Y-40945
T9
X35879Y-41706
X35881Y-50887
X36219Y-27890
X36221Y-26441
X37847Y-46824
X37849Y-45769
X38188Y-22378
X38190Y-31953
X61613Y-37142
X62597Y-28283
T10
X34307Y-18504
X35866Y-18504
X37425Y-18504
X38984Y-18504
X40543Y-18504
X42102Y-18504
X43661Y-18504
X45220Y-18504
T11
X33117Y-34646
X33117Y-38976
X41687Y-34646
X41687Y-38976
T12
X55118Y-19778
X55118Y-49513
T13
X30709Y-20866
X30709Y-48425
X70079Y-20866
X70079Y-48425
T0
M30
